<svg width="56" height="83" viewBox="0 0 56 83" fill="none" xmlns="http://www.w3.org/2000/svg">
<g clip-path="url(#clip0_24_92)">
<path d="M28 41.5C28 33.938 34.2041 27.8075 41.8575 27.8075C49.5106 27.8075 55.7149 33.938 55.7149 41.5C55.7149 49.0622 49.5106 55.1925 41.8575 55.1925C34.2041 55.1925 28 49.0622 28 41.5Z" fill="#1ABCFE"/>
<path d="M0.285065 68.885C0.285065 61.323 6.48926 55.1925 14.1425 55.1925H28V68.885C28 76.4472 21.7959 82.5775 14.1425 82.5775C6.48926 82.5775 0.285065 76.4472 0.285065 68.885Z" fill="#0ACF83"/>
<path d="M28 0.422585V27.8075H41.8575C49.5108 27.8075 55.7149 21.6772 55.7149 14.1151C55.7149 6.55293 49.5108 0.422585 41.8575 0.422585H28Z" fill="#FF7262"/>
<path d="M0.285065 14.1151C0.285065 21.6772 6.48926 27.8075 14.1425 27.8075H28V0.422569H14.1425C6.48926 0.422569 0.285065 6.55291 0.285065 14.1151Z" fill="#F24E1E"/>
<path d="M0.285065 41.5C0.285065 49.0622 6.48926 55.1925 14.1425 55.1925H28V27.8075H14.1425C6.48926 27.8075 0.285065 33.938 0.285065 41.5Z" fill="#A259FF"/>
</g>
<defs>
<clipPath id="clip0_24_92">
<rect width="56" height="83" fill="white"/>
</clipPath>
</defs>
</svg>
